<svg xmlns="http://www.w3.org/2000/svg" viewBox="0 0 504.31 538.83"><defs><style>.prefix__cls-1{fill:#0ae6ff}</style></defs><g id="prefix__Camada_2" data-name="Camada 2"><g id="prefix__Camada_3" data-name="Camada 3"><path class="prefix__cls-1" d="M199.27 234.21h139.3l25-145H250.19c-17.25 0-27.78-9.68-27.78-41.32L224.77 0h-78.46l-14.09 84.05h37.65c25.17 0 51.36 16.29 45.81 45.81-16.41 104.35-8.79 60.2-16.41 104.35z" id="prefix__HATCH"/><path class="prefix__cls-1" d="M354.15 278.6H235.92l-27 153h148.94L337 538.83l110.82-.15 21.74-111.56-109.68.15 19.34-106.64c1.89-19.84 21.52-51.29 108.88-51.29l16.25-92h-90.5c-3.74 104.27-59.7 101.26-59.7 101.26z" id="prefix__HATCH-2" data-name="HATCH"/><path class="prefix__cls-1" d="M72.78 328.54c0-10.48.88-41.91.88-41.91H11.22L0 349.9h36.83c16.29.1 34.31 14.25 31.17 35.3-5 33.58-7.11 47.85-12.75 81.34H159.8l18.78-111.44H94.91c-22.66 0-22.14-17.92-22.13-26.56z" id="prefix__HATCH-3" data-name="HATCH"/></g></g></svg>