<svg xmlns="http://www.w3.org/2000/svg" viewBox="0 0 1864.64 538.83"><defs><style>.cls-1{fill:#0ae6ff;}.cls-2{fill:none;stroke:#000;stroke-linecap:round;stroke-linejoin:round;stroke-width:0;}</style></defs><g id="Camada_2" data-name="Camada 2"><g id="Camada_3" data-name="Camada 3"><g id="HATCH"><path class="cls-1" d="M199.27,234.21h139.3l25-145H250.19c-17.25,0-27.78-9.68-27.78-41.32L224.77,0H146.31L132.22,84.05h37.65c25.17,0,51.36,16.29,45.81,45.81C199.27,234.21,206.89,190.06,199.27,234.21Z"/></g><g id="HATCH-2" data-name="HATCH"><path class="cls-1" d="M354.15,278.6H235.92l-27,153H357.86L337,538.83l110.82-.15,21.74-111.56-109.68.15,19.34-106.64c1.89-19.84,21.52-51.29,108.88-51.29l16.25-92H413.85C410.11,281.61,354.15,278.6,354.15,278.6Z"/></g><g id="HATCH-3" data-name="HATCH"><path class="cls-1" d="M72.78,328.54c0-10.48.88-41.91.88-41.91H11.22L0,349.9s27.62,0,36.83,0C53.12,350,71.14,364.15,68,385.2c-5,33.58-7.11,47.85-12.75,81.34H159.8L178.58,355.1H94.91C72.25,355.1,72.77,337.18,72.78,328.54Z"/></g><g id="SPLINE"><path class="cls-2" d="M836.36,358.07,849.74,307H755.86c-60.54,0-90.15-28.3-90.15-85.54q0-126.68,120-126.56h94.75V43.54H792.71c-127.88,0-188.63,63.17-188.63,186.88,0,86,47.59,127.65,144.76,127.65Z"/></g><g id="HATCH-4" data-name="HATCH"><path d="M836.36,358.07,849.74,307H755.86c-60.54,0-90.15-28.3-90.15-85.54q0-126.68,120-126.56h94.75V43.54H792.71c-127.88,0-188.63,63.17-188.63,186.88,0,86,47.59,127.65,144.76,127.65Z"/></g><g id="SPLINE-2" data-name="SPLINE"><path class="cls-2" d="M1068,92.23c61.42,0,90.81,27.64,90.81,85.77q0,66.12-27,98.7c-18.2,21.93-47.59,32.9-88.61,32.9-61.2,0-90.59-28.08-90.59-86.2C952.61,135.88,987.27,92.23,1068,92.23Z"/></g><g id="SPLINE-3" data-name="SPLINE"><path class="cls-2" d="M1037.94,362.46c123,0,181.39-63.61,181.39-191.7q0-131.61-145-131.6c-123,0-182.49,64.26-182.49,191.26C891.86,317.28,940.77,362.46,1037.94,362.46Z"/></g><g id="HATCH-5" data-name="HATCH"><path d="M1068,92.23c61.42,0,90.81,27.64,90.81,85.77q0,66.12-27,98.7c-18.2,21.93-47.59,32.9-88.61,32.9-61.2,0-90.59-28.08-90.59-86.2,0-87.52,34.66-131.17,115.37-131.17m-30,270.23c123,0,181.39-63.61,181.39-191.7q0-131.61-145-131.6c-123,0-182.49,64.26-182.49,191.26C891.86,317.28,940.77,362.46,1037.94,362.46Z"/></g><g id="SPLINE-4" data-name="SPLINE"><path class="cls-2" d="M1422,210.68h-84.67L1354,94.87h74.58c45,0,67.33,16.67,67.33,50.23C1495.92,189,1473.55,210.68,1422,210.68Z"/></g><g id="SPLINE-5" data-name="SPLINE"><path class="cls-2" d="M1527.07,69.2c-20-17.1-49.13-25.66-87.73-25.66H1302L1257.5,358.07h59.22l13.6-96.07h70l62.07,96.07h69.54l-68.66-102c63-14,93.44-55.49,93.44-116.25C1556.68,109.78,1546.81,86.31,1527.07,69.2Z"/></g><g id="HATCH-6" data-name="HATCH"><path d="M1422,210.68h-84.67L1354,94.87h74.58c45,0,67.33,16.67,67.33,50.23,0,43.86-22.37,65.58-73.91,65.58M1527.07,69.2c-20-17.1-49.13-25.66-87.73-25.66H1302L1257.5,358.07h59.22l13.6-96.07h70l62.07,96.07h69.54l-68.66-102c63-14,93.44-55.49,93.44-116.25C1556.68,109.78,1546.81,86.31,1527.07,69.2Z"/></g><g id="LWPOLYLINE"><polygon class="cls-2" points="1626.44 43.54 1582.13 358.07 1824.72 358.07 1837.66 306.97 1648.15 306.97 1660.22 222.52 1812.44 222.52 1819.24 172.95 1667.02 172.95 1677.77 94.87 1864.2 94.87 1864.64 43.54 1626.44 43.54"/></g><g id="HATCH-7" data-name="HATCH"><polygon points="1626.44 43.54 1582.13 358.07 1824.72 358.07 1837.66 306.97 1648.15 306.97 1660.22 222.52 1812.44 222.52 1819.24 172.95 1667.02 172.95 1677.77 94.87 1864.2 94.87 1864.64 43.54 1626.44 43.54"/></g><g id="LWPOLYLINE-2" data-name="LWPOLYLINE"><polygon class="cls-2" points="610.93 492.85 621.95 492.85 630.16 418.24 619.14 418.24 610.93 492.85"/></g><g id="HATCH-8" data-name="HATCH"><polygon points="610.93 492.85 621.95 492.85 630.16 418.24 619.14 418.24 610.93 492.85"/></g><g id="LWPOLYLINE-3" data-name="LWPOLYLINE"><polygon class="cls-2" points="681.21 470.68 652.28 418.24 643.87 418.24 635.67 492.85 645.95 492.85 651.79 440.5 680.72 492.85 689.09 492.85 697.25 418.24 686.97 418.24 681.21 470.68"/></g><g id="HATCH-9" data-name="HATCH"><polygon points="681.21 470.68 652.28 418.24 643.87 418.24 635.67 492.85 645.95 492.85 651.79 440.5 680.72 492.85 689.09 492.85 697.25 418.24 686.97 418.24 681.21 470.68"/></g><g id="LWPOLYLINE-4" data-name="LWPOLYLINE"><polygon class="cls-2" points="754.06 430.41 753.98 418.24 710.97 418.24 702.76 492.85 713.78 492.85 717.05 462.77 744.06 462.77 745.37 451.07 718.39 451.07 720.56 430.41 754.06 430.41"/></g><g id="HATCH-10" data-name="HATCH"><polygon points="754.06 430.41 753.98 418.24 710.97 418.24 702.76 492.85 713.78 492.85 717.05 462.77 744.06 462.77 745.37 451.07 718.39 451.07 720.56 430.41 754.06 430.41"/></g><g id="SPLINE-6" data-name="SPLINE"><path class="cls-2" d="M786,457.88H770.27l3.1-27.47h13.87c8.37,0,12.53,4,12.53,11.92C799.77,452.73,795.61,457.88,786,457.88Z"/></g><g id="SPLINE-7" data-name="SPLINE"><path class="cls-2" d="M811.08,441.08c0-7.13-1.84-12.7-5.51-16.76s-9.15-6.08-16.33-6.08H763.7l-8.29,74.61h11L769,470.06h13l11.55,22.79h12.93l-12.77-24.2C805.4,465.32,811.08,455.49,811.08,441.08Z"/></g><g id="HATCH-11" data-name="HATCH"><path d="M786,457.88H770.27l3.1-27.47h13.87c8.37,0,12.53,4,12.53,11.92,0,10.4-4.16,15.55-13.75,15.55m25.06-16.8c0-7.13-1.84-12.7-5.51-16.76s-9.15-6.08-16.33-6.08H763.7l-8.29,74.61h11L769,470.06h13l11.55,22.79h12.93l-12.77-24.2C805.4,465.32,811.08,455.49,811.08,441.08Z"/></g><g id="SPLINE-8" data-name="SPLINE"><polygon class="cls-2" points="835.12 461.52 848.22 430.31 849.64 430.31 855.85 461.52 835.12 461.52"/></g><g id="SPLINE-9" data-name="SPLINE"><polygon class="cls-2" points="841.81 418.24 809.53 492.85 821.89 492.85 829.93 473.75 858.25 473.75 862.01 492.85 873.64 492.85 858.17 418.24 841.81 418.24"/></g><g id="HATCH-12" data-name="HATCH"><path d="M835.12,461.52l13.1-31.21h1.42l6.21,31.21H835.12m6.69-43.28-32.28,74.61h12.36l8-19.1h28.33l3.75,19.1h11.63l-15.47-74.61Z"/></g><g id="LWPOLYLINE-5" data-name="LWPOLYLINE"><polygon class="cls-2" points="879.68 492.85 924.82 492.85 927.23 480.72 891.97 480.72 894.21 460.69 922.53 460.69 923.8 448.93 895.48 448.93 897.48 430.41 932.16 430.41 932.25 418.24 887.93 418.24 879.68 492.85"/></g><g id="HATCH-13" data-name="HATCH"><polygon points="879.68 492.85 924.82 492.85 927.23 480.72 891.97 480.72 894.21 460.69 922.53 460.69 923.8 448.93 895.48 448.93 897.48 430.41 932.16 430.41 932.25 418.24 887.93 418.24 879.68 492.85"/></g><g id="SPLINE-10" data-name="SPLINE"><path class="cls-2" d="M960.57,430.41h25.75l-.69-12.17H960.25c-6.49,0-11.59,2-15.35,6s-5.63,9.31-5.63,16c0,10.57,5.1,16.29,15.39,18.79l10.69,2.65c5.87,1.51,8.77,4,8.77,9.37,0,6.19-4.36,9.72-11.38,9.72h-28.9l.57,12.13h29.43q9.6,0,15.71-6.3c4-4.21,6.08-9.73,6.08-16.59,0-11-5.67-17.59-15.79-20l-10.45-2.34c-6-1.51-8.61-4.11-8.61-8.95C950.78,433.17,954,430.41,960.57,430.41Z"/></g><g id="HATCH-14" data-name="HATCH"><path d="M960.57,430.41h25.75l-.69-12.17H960.25c-6.49,0-11.59,2-15.35,6s-5.63,9.31-5.63,16c0,10.57,5.1,16.29,15.39,18.79l10.69,2.65c5.87,1.51,8.77,4,8.77,9.37,0,6.19-4.36,9.72-11.38,9.72h-28.9l.57,12.13h29.43q9.6,0,15.71-6.3c4-4.21,6.08-9.73,6.08-16.59,0-11-5.67-17.59-15.79-20l-10.45-2.34c-6-1.51-8.61-4.11-8.61-8.95C950.78,433.17,954,430.41,960.57,430.41Z"/></g><g id="LWPOLYLINE-6" data-name="LWPOLYLINE"><polygon class="cls-2" points="993.96 418.24 992.65 430.41 1014.28 430.41 1007.43 492.85 1018.44 492.85 1025.3 430.41 1047.05 430.41 1048.4 418.24 993.96 418.24"/></g><g id="HATCH-15" data-name="HATCH"><polygon points="993.96 418.24 992.65 430.41 1014.28 430.41 1007.43 492.85 1018.44 492.85 1025.3 430.41 1047.05 430.41 1048.4 418.24 993.96 418.24"/></g><g id="SPLINE-11" data-name="SPLINE"><path class="cls-2" d="M1078.64,457.88h-15.75l3.1-27.47h13.88q12.54,0,12.53,11.92C1092.4,452.73,1088.23,457.88,1078.64,457.88Z"/></g><g id="SPLINE-12" data-name="SPLINE"><path class="cls-2" d="M1103.7,441.08c0-7.13-1.84-12.7-5.51-16.76s-9.14-6.08-16.32-6.08h-25.55L1048,492.85h11l2.53-22.79h13l11.55,22.79h12.94l-12.77-24.2C1098,465.32,1103.7,455.49,1103.7,441.08Z"/></g><g id="HATCH-16" data-name="HATCH"><path d="M1078.64,457.88h-15.75l3.1-27.47h13.88q12.54,0,12.53,11.92c0,10.4-4.17,15.55-13.76,15.55m25.06-16.8c0-7.13-1.84-12.7-5.51-16.76s-9.14-6.08-16.32-6.08h-25.55L1048,492.85h11l2.53-22.79h13l11.55,22.79h12.94l-12.77-24.2C1098,465.32,1103.7,455.49,1103.7,441.08Z"/></g><g id="SPLINE-13" data-name="SPLINE"><path class="cls-2" d="M1152.39,459.81c-1.59,14.72-7.06,21.54-17.47,21.54q-14.57,0-12.2-21.33l4.61-41.78h-11L1111.78,460c-2.4,22.21,5.35,33.87,23,33.87,8.77,0,15.43-2.65,19.87-8s7.35-14,8.7-26.12l4.61-41.57H1157Z"/></g><g id="HATCH-17" data-name="HATCH"><path d="M1152.39,459.81c-1.59,14.72-7.06,21.54-17.47,21.54q-14.57,0-12.2-21.33l4.61-41.78h-11L1111.78,460c-2.4,22.21,5.35,33.87,23,33.87,8.77,0,15.43-2.65,19.87-8s7.35-14,8.7-26.12l4.61-41.57H1157Z"/></g><g id="LWPOLYLINE-7" data-name="LWPOLYLINE"><polygon class="cls-2" points="1173.62 430.41 1195.24 430.41 1188.39 492.85 1199.41 492.85 1206.26 430.41 1228.01 430.41 1229.36 418.24 1174.92 418.24 1173.62 430.41"/></g><g id="HATCH-18" data-name="HATCH"><polygon points="1173.62 430.41 1195.24 430.41 1188.39 492.85 1199.41 492.85 1206.26 430.41 1228.01 430.41 1229.36 418.24 1174.92 418.24 1173.62 430.41"/></g><g id="SPLINE-14" data-name="SPLINE"><path class="cls-2" d="M1272.54,459.81c-1.59,14.72-7.06,21.54-17.46,21.54q-14.58,0-12.21-21.33l4.62-41.78h-11L1231.94,460c-2.41,22.21,5.34,33.87,23,33.87,8.78,0,15.43-2.65,19.88-8s7.34-14,8.69-26.12l4.61-41.57h-10.94Z"/></g><g id="HATCH-19" data-name="HATCH"><path d="M1272.54,459.81c-1.59,14.72-7.06,21.54-17.46,21.54q-14.58,0-12.21-21.33l4.62-41.78h-11L1231.94,460c-2.41,22.21,5.34,33.87,23,33.87,8.78,0,15.43-2.65,19.88-8s7.34-14,8.69-26.12l4.61-41.57h-10.94Z"/></g><g id="SPLINE-15" data-name="SPLINE"><path class="cls-2" d="M1323.35,457.88H1307.6l3.1-27.47h13.88q12.54,0,12.53,11.92C1337.11,452.73,1332.94,457.88,1323.35,457.88Z"/></g><g id="SPLINE-16" data-name="SPLINE"><path class="cls-2" d="M1348.41,441.08c0-7.13-1.84-12.7-5.51-16.76s-9.14-6.08-16.32-6.08H1301l-8.28,74.61h11l2.53-22.79h13l11.55,22.79h12.94L1331,468.65C1342.74,465.32,1348.41,455.49,1348.41,441.08Z"/></g><g id="HATCH-20" data-name="HATCH"><path d="M1323.35,457.88H1307.6l3.1-27.47h13.88q12.54,0,12.53,11.92c0,10.4-4.17,15.55-13.76,15.55m25.06-16.8c0-7.13-1.84-12.7-5.51-16.76s-9.14-6.08-16.32-6.08H1301l-8.28,74.61h11l2.53-22.79h13l11.55,22.79h12.94L1331,468.65C1342.74,465.32,1348.41,455.49,1348.41,441.08Z"/></g><g id="SPLINE-17" data-name="SPLINE"><polygon class="cls-2" points="1372.45 461.52 1385.55 430.31 1386.98 430.31 1393.18 461.52 1372.45 461.52"/></g><g id="SPLINE-18" data-name="SPLINE"><polygon class="cls-2" points="1379.14 418.24 1346.87 492.85 1359.23 492.85 1367.27 473.75 1395.59 473.75 1399.35 492.85 1410.98 492.85 1395.51 418.24 1379.14 418.24"/></g><g id="HATCH-21" data-name="HATCH"><path d="M1372.45,461.52l13.1-31.21H1387l6.2,31.21h-20.73m6.7-43.28-32.28,74.61h12.36l8-19.1h28.32l3.76,19.1H1411l-15.47-74.61Z"/></g><g id="SPLINE-19" data-name="SPLINE"><path class="cls-2" d="M1461.63,480.72h-13.47l5.51-50.31h13.46c10.33,0,15.64,6.87,15.64,20.35Q1482.77,480.72,1461.63,480.72Z"/></g><g id="SPLINE-20" data-name="SPLINE"><path class="cls-2" d="M1468.48,418.24H1444l-8.21,74.61h24.49c23,0,33.83-14.78,33.83-44.12C1494.11,428.28,1485.62,418.24,1468.48,418.24Z"/></g><g id="HATCH-22" data-name="HATCH"><path d="M1461.63,480.72h-13.47l5.51-50.31h13.46c10.33,0,15.64,6.87,15.64,20.35q0,30-21.14,30m6.85-62.48H1444l-8.21,74.61h24.49c23,0,33.83-14.78,33.83-44.12C1494.11,428.28,1485.62,418.24,1468.48,418.24Z"/></g><g id="LWPOLYLINE-8" data-name="LWPOLYLINE"><polygon class="cls-2" points="1499.71 492.85 1544.84 492.85 1547.25 480.72 1511.99 480.72 1514.24 460.69 1542.56 460.69 1543.82 448.93 1515.5 448.93 1517.5 430.41 1552.19 430.41 1552.27 418.24 1507.95 418.24 1499.71 492.85"/></g><g id="HATCH-23" data-name="HATCH"><polygon points="1499.71 492.85 1544.84 492.85 1547.25 480.72 1511.99 480.72 1514.24 460.69 1542.56 460.69 1543.82 448.93 1515.5 448.93 1517.5 430.41 1552.19 430.41 1552.27 418.24 1507.95 418.24 1499.71 492.85"/></g><g id="SPLINE-21" data-name="SPLINE"><path class="cls-2" d="M1606.43,457.88h-15.75l3.1-27.47h13.87c8.37,0,12.53,4,12.53,11.92C1620.18,452.73,1616,457.88,1606.43,457.88Z"/></g><g id="SPLINE-22" data-name="SPLINE"><path class="cls-2" d="M1631.49,441.08c0-7.13-1.84-12.7-5.51-16.76s-9.14-6.08-16.33-6.08h-25.54l-8.29,74.61h11l2.53-22.79h13l11.55,22.79h12.93l-12.77-24.2C1625.81,465.32,1631.49,455.49,1631.49,441.08Z"/></g><g id="HATCH-24" data-name="HATCH"><path d="M1606.43,457.88h-15.75l3.1-27.47h13.87c8.37,0,12.53,4,12.53,11.92,0,10.4-4.16,15.55-13.75,15.55m25.06-16.8c0-7.13-1.84-12.7-5.51-16.76s-9.14-6.08-16.33-6.08h-25.54l-8.29,74.61h11l2.53-22.79h13l11.55,22.79h12.93l-12.77-24.2C1625.81,465.32,1631.49,455.49,1631.49,441.08Z"/></g><g id="LWPOLYLINE-9" data-name="LWPOLYLINE"><polygon class="cls-2" points="1636.22 492.85 1681.36 492.85 1683.77 480.72 1648.51 480.72 1650.75 460.69 1679.07 460.69 1680.34 448.93 1652.02 448.93 1654.02 430.41 1688.71 430.41 1688.79 418.24 1644.47 418.24 1636.22 492.85"/></g><g id="HATCH-25" data-name="HATCH"><polygon points="1636.22 492.85 1681.36 492.85 1683.77 480.72 1648.51 480.72 1650.75 460.69 1679.07 460.69 1680.34 448.93 1652.02 448.93 1654.02 430.41 1688.71 430.41 1688.79 418.24 1644.47 418.24 1636.22 492.85"/></g><g id="SPLINE-23" data-name="SPLINE"><path class="cls-2" d="M1718.3,480.72h-13.47l5.51-50.31h13.47c10.32,0,15.63,6.87,15.63,20.35Q1739.44,480.72,1718.3,480.72Z"/></g><g id="SPLINE-24" data-name="SPLINE"><path class="cls-2" d="M1725.15,418.24h-24.48l-8.21,74.61H1717c23,0,33.83-14.78,33.83-44.12C1750.78,428.28,1742.29,418.24,1725.15,418.24Z"/></g><g id="HATCH-26" data-name="HATCH"><path d="M1718.3,480.72h-13.47l5.51-50.31h13.47c10.32,0,15.63,6.87,15.63,20.35q0,30-21.14,30m6.85-62.48h-24.48l-8.21,74.61H1717c23,0,33.83-14.78,33.83-44.12C1750.78,428.28,1742.29,418.24,1725.15,418.24Z"/></g><g id="LWPOLYLINE-10" data-name="LWPOLYLINE"><polygon class="cls-2" points="1756.38 492.85 1801.51 492.85 1803.92 480.72 1768.66 480.72 1770.9 460.69 1799.23 460.69 1800.49 448.93 1772.17 448.93 1774.17 430.41 1808.86 430.41 1808.94 418.24 1764.62 418.24 1756.38 492.85"/></g><g id="HATCH-27" data-name="HATCH"><polygon points="1756.38 492.85 1801.51 492.85 1803.92 480.72 1768.66 480.72 1770.9 460.69 1799.23 460.69 1800.49 448.93 1772.17 448.93 1774.17 430.41 1808.86 430.41 1808.94 418.24 1764.62 418.24 1756.38 492.85"/></g><g id="SPLINE-25" data-name="SPLINE"><path class="cls-2" d="M1837.27,430.41H1863l-.69-12.17h-25.38c-6.49,0-11.59,2-15.35,6s-5.63,9.31-5.63,16c0,10.57,5.1,16.29,15.39,18.79l10.69,2.65c5.88,1.51,8.77,4,8.77,9.37,0,6.19-4.36,9.72-11.38,9.72h-28.9l.57,12.13h29.43q9.6,0,15.71-6.3c4-4.21,6.08-9.73,6.08-16.59,0-11-5.67-17.59-15.79-20l-10.45-2.34c-6-1.51-8.61-4.11-8.61-8.95C1827.47,433.17,1830.73,430.41,1837.27,430.41Z"/></g><g id="HATCH-28" data-name="HATCH"><path d="M1837.27,430.41H1863l-.69-12.17h-25.38c-6.49,0-11.59,2-15.35,6s-5.63,9.31-5.63,16c0,10.57,5.1,16.29,15.39,18.79l10.69,2.65c5.88,1.51,8.77,4,8.77,9.37,0,6.19-4.36,9.72-11.38,9.72h-28.9l.57,12.13h29.43q9.6,0,15.71-6.3c4-4.21,6.08-9.73,6.08-16.59,0-11-5.67-17.59-15.79-20l-10.45-2.34c-6-1.51-8.61-4.11-8.61-8.95C1827.47,433.17,1830.73,430.41,1837.27,430.41Z"/></g></g></g></svg>